# xmcd
#
# Track frame offsets:
#	150
#	18546
#	33132
#
# Disc length: 664 seconds
#
# Revision: 0
# Processed by: cddbd v1.5.2PL0 Copyright (c) Steve Scherf et al.
# Submitted via: EasyCDDAExtractor 11.0.0.1
#
DISCID=18029603
DTITLE=ΤΑΓΑΡΑ ΣΕΜΕΛΗ - ΚΑΠΝΟΣ
DYEAR=2000
DGENRE=ΛΑΪΚΑ
TTITLE0=Ταγαρά Σεμελή_01 Καπνός
TTITLE1=Ταγαρά Σεμελή_02 Κραυγές
TTITLE2=Ταγαρά Σεμελή_03 Στον αέρα
EXTD=
EXTT0=
EXTT1=
EXTT2=
PLAYORDER=
